<svg width="25" height="24" viewBox="0 0 25 24" fill="none" xmlns="http://www.w3.org/2000/svg">
<path d="M14.375 2.26953V6.40007C14.375 6.96012 14.375 7.24015 14.484 7.45406C14.5799 7.64222 14.7328 7.7952 14.921 7.89108C15.1349 8.00007 15.4149 8.00007 15.975 8.00007H20.1055M14.375 17H8.375M16.375 13H8.375M20.375 9.98822V17.2C20.375 18.8802 20.375 19.7202 20.048 20.362C19.7604 20.9265 19.3015 21.3854 18.737 21.673C18.0952 22 17.2552 22 15.575 22H9.175C7.49484 22 6.65476 22 6.01303 21.673C5.44854 21.3854 4.9896 20.9265 4.70198 20.362C4.375 19.7202 4.375 18.8802 4.375 17.2V6.8C4.375 5.11984 4.375 4.27976 4.70198 3.63803C4.9896 3.07354 5.44854 2.6146 6.01303 2.32698C6.65476 2 7.49484 2 9.175 2H12.3868C13.1205 2 13.4874 2 13.8327 2.08289C14.1388 2.15638 14.4314 2.27759 14.6999 2.44208C15.0026 2.6276 15.262 2.88703 15.7809 3.40589L18.9691 6.59411C19.488 7.11297 19.7474 7.3724 19.9329 7.67515C20.0974 7.94356 20.2186 8.2362 20.2921 8.5423C20.375 8.88757 20.375 9.25445 20.375 9.98822Z" stroke="black" stroke-width="2" stroke-linecap="round" stroke-linejoin="round"/>
</svg>
