<svg width="33" height="33" viewBox="0 0 33 33" fill="none" xmlns="http://www.w3.org/2000/svg">
<rect width="33" height="33" fill="#1E1E1E"/>
<g id="gg:google">
<path id="Vector" d="M9.94332 16.6083C9.94173 18.1817 10.4968 19.705 11.5104 20.9085C12.524 22.112 13.9307 22.9181 15.4814 23.1841C17.0322 23.4501 18.6271 23.1589 19.9838 22.362C21.3406 21.5652 22.3716 20.314 22.8945 18.83H16.6083V14.3866H27.5V18.83H27.4944C26.4647 23.8998 21.9825 27.7166 16.6083 27.7166C10.4732 27.7166 5.5 22.7434 5.5 16.6083C5.5 10.4732 10.4732 5.5 16.6083 5.5C18.424 5.49871 20.2122 5.94295 21.8162 6.79375C23.4202 7.64455 24.791 8.87593 25.8082 10.3799L22.1669 12.9292C21.3764 11.7344 20.222 10.8261 18.8748 10.339C17.5276 9.85179 16.0592 9.81168 14.6874 10.2246C13.3156 10.6375 12.1133 11.4814 11.2588 12.6312C10.4043 13.7811 9.94298 15.1757 9.94332 16.6083Z" fill="white"/>
</g>
</svg>
