<svg width="25" height="24" viewBox="0 0 25 24" fill="none" xmlns="http://www.w3.org/2000/svg">
<path d="M8.125 17H16.125M11.1427 2.764L4.36039 8.03912C3.90702 8.39175 3.68034 8.56806 3.51703 8.78886C3.37237 8.98444 3.2646 9.20478 3.19903 9.43905C3.125 9.70352 3.125 9.9907 3.125 10.5651V17.8C3.125 18.9201 3.125 19.4801 3.34299 19.908C3.53473 20.2843 3.84069 20.5903 4.21702 20.782C4.64484 21 5.20489 21 6.325 21H17.925C19.0451 21 19.6052 21 20.033 20.782C20.4093 20.5903 20.7153 20.2843 20.907 19.908C21.125 19.4801 21.125 18.9201 21.125 17.8V10.5651C21.125 9.9907 21.125 9.70352 21.051 9.43905C20.9854 9.20478 20.8776 8.98444 20.733 8.78886C20.5697 8.56806 20.343 8.39175 19.8896 8.03913L13.1073 2.764C12.756 2.49075 12.5803 2.35412 12.3863 2.3016C12.2152 2.25526 12.0348 2.25526 11.8637 2.3016C11.6697 2.35412 11.494 2.49075 11.1427 2.764Z" stroke="black" stroke-width="2" stroke-linecap="round" stroke-linejoin="round"/>
</svg>
