<svg width="25" height="24" viewBox="0 0 25 24" fill="none" xmlns="http://www.w3.org/2000/svg">
<path d="M21.625 12H9.625M21.625 6H9.625M21.625 18H9.625M5.625 12C5.625 12.5523 5.17728 13 4.625 13C4.07272 13 3.625 12.5523 3.625 12C3.625 11.4477 4.07272 11 4.625 11C5.17728 11 5.625 11.4477 5.625 12ZM5.625 6C5.625 6.55228 5.17728 7 4.625 7C4.07272 7 3.625 6.55228 3.625 6C3.625 5.44772 4.07272 5 4.625 5C5.17728 5 5.625 5.44772 5.625 6ZM5.625 18C5.625 18.5523 5.17728 19 4.625 19C4.07272 19 3.625 18.5523 3.625 18C3.625 17.4477 4.07272 17 4.625 17C5.17728 17 5.625 17.4477 5.625 18Z" stroke="black" stroke-width="2" stroke-linecap="round" stroke-linejoin="round"/>
</svg>
