<svg width="25" height="24" viewBox="0 0 25 24" fill="none" xmlns="http://www.w3.org/2000/svg">
<path d="M20.875 21C20.875 19.6044 20.875 18.9067 20.7028 18.3389C20.315 17.0605 19.3145 16.06 18.0361 15.6722C17.4683 15.5 16.7706 15.5 15.375 15.5H10.375C8.97944 15.5 8.28165 15.5 7.71386 15.6722C6.43545 16.06 5.43504 17.0605 5.04724 18.3389C4.875 18.9067 4.875 19.6044 4.875 21M17.375 7.5C17.375 9.98528 15.3603 12 12.875 12C10.3897 12 8.375 9.98528 8.375 7.5C8.375 5.01472 10.3897 3 12.875 3C15.3603 3 17.375 5.01472 17.375 7.5Z" stroke="black" stroke-width="2" stroke-linecap="round" stroke-linejoin="round"/>
</svg>
